<mxfile host="app.diagrams.net" modified="2023-11-17T09:13:13.099Z" agent="Mozilla/5.0 (Windows NT 10.0; Win64; x64) AppleWebKit/537.36 (KHTML, like Gecko) Chrome/119.0.0.0 Safari/537.36" etag="BEHGJ5Xz-TGrzRiQ9x5D" version="22.1.2" type="device">
  <diagram name="第 1 页" id="cNBoXt-2fNRA4Bzkx0R-">
    <mxGraphModel dx="1149" dy="698" grid="1" gridSize="10" guides="1" tooltips="1" connect="1" arrows="1" fold="1" page="1" pageScale="1" pageWidth="827" pageHeight="1169" math="0" shadow="0">
      <root>
        <mxCell id="0" />
        <mxCell id="1" parent="0" />
        <mxCell id="Lx94tNJwy_piZgA6WU3s-24" style="edgeStyle=orthogonalEdgeStyle;rounded=0;orthogonalLoop=1;jettySize=auto;html=1;exitX=0.5;exitY=0;exitDx=0;exitDy=0;entryX=0;entryY=0.5;entryDx=0;entryDy=0;" edge="1" parent="1" source="Lx94tNJwy_piZgA6WU3s-1" target="Lx94tNJwy_piZgA6WU3s-13">
          <mxGeometry relative="1" as="geometry" />
        </mxCell>
        <mxCell id="Lx94tNJwy_piZgA6WU3s-25" value="E" style="edgeLabel;html=1;align=center;verticalAlign=middle;resizable=0;points=[];fontStyle=1;fontSize=18;" vertex="1" connectable="0" parent="Lx94tNJwy_piZgA6WU3s-24">
          <mxGeometry x="0.2829" y="-1" relative="1" as="geometry">
            <mxPoint as="offset" />
          </mxGeometry>
        </mxCell>
        <mxCell id="Lx94tNJwy_piZgA6WU3s-31" style="edgeStyle=orthogonalEdgeStyle;rounded=0;orthogonalLoop=1;jettySize=auto;html=1;exitX=0.997;exitY=0.245;exitDx=0;exitDy=0;entryX=0;entryY=0.25;entryDx=0;entryDy=0;exitPerimeter=0;" edge="1" parent="1" source="Lx94tNJwy_piZgA6WU3s-1" target="Lx94tNJwy_piZgA6WU3s-26">
          <mxGeometry relative="1" as="geometry" />
        </mxCell>
        <mxCell id="Lx94tNJwy_piZgA6WU3s-32" value="&lt;b&gt;&lt;font style=&quot;font-size: 18px;&quot;&gt;T&lt;/font&gt;&lt;/b&gt;" style="edgeLabel;html=1;align=center;verticalAlign=middle;resizable=0;points=[];" vertex="1" connectable="0" parent="Lx94tNJwy_piZgA6WU3s-31">
          <mxGeometry x="-0.1058" relative="1" as="geometry">
            <mxPoint as="offset" />
          </mxGeometry>
        </mxCell>
        <mxCell id="Lx94tNJwy_piZgA6WU3s-1" value="" style="rounded=0;whiteSpace=wrap;html=1;" vertex="1" parent="1">
          <mxGeometry x="40" y="160" width="170" height="300" as="geometry" />
        </mxCell>
        <mxCell id="Lx94tNJwy_piZgA6WU3s-2" value="&lt;b&gt;&lt;font face=&quot;Comic Sans MS&quot; style=&quot;font-size: 18px;&quot;&gt;I0&lt;/font&gt;&lt;/b&gt;" style="text;html=1;strokeColor=none;fillColor=none;align=center;verticalAlign=middle;whiteSpace=wrap;rounded=0;" vertex="1" parent="1">
          <mxGeometry x="30" y="160" width="60" height="30" as="geometry" />
        </mxCell>
        <mxCell id="Lx94tNJwy_piZgA6WU3s-4" value="&lt;span style=&quot;font-size: 18px;&quot;&gt;&lt;b&gt;E&#39;→•E,$&lt;/b&gt;&lt;/span&gt;" style="text;html=1;strokeColor=none;fillColor=none;align=left;verticalAlign=middle;whiteSpace=wrap;rounded=0;" vertex="1" parent="1">
          <mxGeometry x="50" y="190" width="80" height="30" as="geometry" />
        </mxCell>
        <mxCell id="Lx94tNJwy_piZgA6WU3s-5" value="&lt;span style=&quot;font-size: 18px;&quot;&gt;&lt;b&gt;E→•E+T,$/+/-&lt;/b&gt;&lt;/span&gt;" style="text;html=1;strokeColor=none;fillColor=none;align=left;verticalAlign=middle;whiteSpace=wrap;rounded=0;" vertex="1" parent="1">
          <mxGeometry x="50" y="220" width="120" height="30" as="geometry" />
        </mxCell>
        <mxCell id="Lx94tNJwy_piZgA6WU3s-6" value="&lt;span style=&quot;font-size: 18px;&quot;&gt;&lt;b&gt;E→•E-T,$/+/-&lt;/b&gt;&lt;/span&gt;" style="text;html=1;strokeColor=none;fillColor=none;align=left;verticalAlign=middle;whiteSpace=wrap;rounded=0;" vertex="1" parent="1">
          <mxGeometry x="50" y="250" width="120" height="30" as="geometry" />
        </mxCell>
        <mxCell id="Lx94tNJwy_piZgA6WU3s-7" value="&lt;span style=&quot;font-size: 18px;&quot;&gt;&lt;b&gt;E→•T,$/+/-&lt;/b&gt;&lt;/span&gt;" style="text;html=1;strokeColor=none;fillColor=none;align=left;verticalAlign=middle;whiteSpace=wrap;rounded=0;" vertex="1" parent="1">
          <mxGeometry x="50" y="280" width="140" height="30" as="geometry" />
        </mxCell>
        <mxCell id="Lx94tNJwy_piZgA6WU3s-8" value="&lt;span style=&quot;font-size: 18px;&quot;&gt;&lt;b&gt;T→•T*F,$/+/-/*//&lt;/b&gt;&lt;/span&gt;" style="text;html=1;strokeColor=none;fillColor=none;align=left;verticalAlign=middle;whiteSpace=wrap;rounded=0;" vertex="1" parent="1">
          <mxGeometry x="50" y="310" width="200" height="30" as="geometry" />
        </mxCell>
        <mxCell id="Lx94tNJwy_piZgA6WU3s-9" value="&lt;span style=&quot;font-size: 18px;&quot;&gt;&lt;b&gt;T→•T/F,$/+/-/*//&lt;/b&gt;&lt;/span&gt;" style="text;html=1;strokeColor=none;fillColor=none;align=left;verticalAlign=middle;whiteSpace=wrap;rounded=0;" vertex="1" parent="1">
          <mxGeometry x="50" y="340" width="200" height="30" as="geometry" />
        </mxCell>
        <mxCell id="Lx94tNJwy_piZgA6WU3s-10" value="&lt;span style=&quot;font-size: 18px;&quot;&gt;&lt;b&gt;T→•F,$/+/-/*//&lt;/b&gt;&lt;/span&gt;" style="text;html=1;strokeColor=none;fillColor=none;align=left;verticalAlign=middle;whiteSpace=wrap;rounded=0;" vertex="1" parent="1">
          <mxGeometry x="50" y="370" width="200" height="30" as="geometry" />
        </mxCell>
        <mxCell id="Lx94tNJwy_piZgA6WU3s-11" value="&lt;span style=&quot;font-size: 18px;&quot;&gt;&lt;b&gt;T→•(E),$/+/-/*//&lt;/b&gt;&lt;/span&gt;" style="text;html=1;strokeColor=none;fillColor=none;align=left;verticalAlign=middle;whiteSpace=wrap;rounded=0;" vertex="1" parent="1">
          <mxGeometry x="50" y="400" width="200" height="30" as="geometry" />
        </mxCell>
        <mxCell id="Lx94tNJwy_piZgA6WU3s-12" value="&lt;span style=&quot;font-size: 18px;&quot;&gt;&lt;b&gt;T→•num,$/+/-/*//&lt;/b&gt;&lt;/span&gt;" style="text;html=1;strokeColor=none;fillColor=none;align=left;verticalAlign=middle;whiteSpace=wrap;rounded=0;" vertex="1" parent="1">
          <mxGeometry x="50" y="430" width="200" height="30" as="geometry" />
        </mxCell>
        <mxCell id="Lx94tNJwy_piZgA6WU3s-13" value="" style="rounded=0;whiteSpace=wrap;html=1;" vertex="1" parent="1">
          <mxGeometry x="280" y="25" width="170" height="125" as="geometry" />
        </mxCell>
        <mxCell id="Lx94tNJwy_piZgA6WU3s-14" value="&lt;b&gt;&lt;font face=&quot;Comic Sans MS&quot; style=&quot;font-size: 18px;&quot;&gt;I1&lt;/font&gt;&lt;/b&gt;" style="text;html=1;strokeColor=none;fillColor=none;align=center;verticalAlign=middle;whiteSpace=wrap;rounded=0;" vertex="1" parent="1">
          <mxGeometry x="270" y="25" width="60" height="30" as="geometry" />
        </mxCell>
        <mxCell id="Lx94tNJwy_piZgA6WU3s-15" value="&lt;b style=&quot;font-size: 18px;&quot;&gt;E&#39;→E&lt;/b&gt;&lt;b&gt;&lt;font style=&quot;font-size: 18px;&quot;&gt;•&lt;/font&gt;&lt;/b&gt;&lt;b style=&quot;font-size: 18px;&quot;&gt;,$&lt;/b&gt;" style="text;html=1;strokeColor=none;fillColor=none;align=left;verticalAlign=middle;whiteSpace=wrap;rounded=0;" vertex="1" parent="1">
          <mxGeometry x="290" y="55" width="120" height="30" as="geometry" />
        </mxCell>
        <mxCell id="Lx94tNJwy_piZgA6WU3s-16" value="&lt;span style=&quot;font-size: 18px;&quot;&gt;&lt;b&gt;E→•E+T,$/+/-&lt;/b&gt;&lt;/span&gt;" style="text;html=1;strokeColor=none;fillColor=none;align=left;verticalAlign=middle;whiteSpace=wrap;rounded=0;" vertex="1" parent="1">
          <mxGeometry x="290" y="85" width="120" height="30" as="geometry" />
        </mxCell>
        <mxCell id="Lx94tNJwy_piZgA6WU3s-17" value="&lt;span style=&quot;font-size: 18px;&quot;&gt;&lt;b&gt;E→•E-T,$/+/-&lt;/b&gt;&lt;/span&gt;" style="text;html=1;strokeColor=none;fillColor=none;align=left;verticalAlign=middle;whiteSpace=wrap;rounded=0;" vertex="1" parent="1">
          <mxGeometry x="290" y="115" width="120" height="30" as="geometry" />
        </mxCell>
        <mxCell id="Lx94tNJwy_piZgA6WU3s-26" value="" style="rounded=0;whiteSpace=wrap;html=1;" vertex="1" parent="1">
          <mxGeometry x="280" y="202.5" width="170" height="125" as="geometry" />
        </mxCell>
        <mxCell id="Lx94tNJwy_piZgA6WU3s-27" value="&lt;b&gt;&lt;font face=&quot;Comic Sans MS&quot; style=&quot;font-size: 18px;&quot;&gt;I2&lt;/font&gt;&lt;/b&gt;" style="text;html=1;strokeColor=none;fillColor=none;align=center;verticalAlign=middle;whiteSpace=wrap;rounded=0;" vertex="1" parent="1">
          <mxGeometry x="270" y="202.5" width="60" height="30" as="geometry" />
        </mxCell>
        <mxCell id="Lx94tNJwy_piZgA6WU3s-28" value="&lt;b style=&quot;font-size: 18px;&quot;&gt;E→T&lt;/b&gt;&lt;b&gt;&lt;font style=&quot;font-size: 18px;&quot;&gt;•&lt;/font&gt;&lt;/b&gt;&lt;b style=&quot;font-size: 18px;&quot;&gt;,$&lt;/b&gt;" style="text;html=1;strokeColor=none;fillColor=none;align=left;verticalAlign=middle;whiteSpace=wrap;rounded=0;" vertex="1" parent="1">
          <mxGeometry x="290" y="232.5" width="120" height="30" as="geometry" />
        </mxCell>
        <mxCell id="Lx94tNJwy_piZgA6WU3s-29" value="&lt;span style=&quot;font-size: 18px;&quot;&gt;&lt;b&gt;T→T•*F,$/+/-/*//&lt;/b&gt;&lt;/span&gt;" style="text;html=1;strokeColor=none;fillColor=none;align=left;verticalAlign=middle;whiteSpace=wrap;rounded=0;" vertex="1" parent="1">
          <mxGeometry x="290" y="262.5" width="130" height="30" as="geometry" />
        </mxCell>
        <mxCell id="Lx94tNJwy_piZgA6WU3s-30" value="&lt;span style=&quot;font-size: 18px;&quot;&gt;&lt;b&gt;T→T•/F,$/+/-/*//&lt;/b&gt;&lt;/span&gt;" style="text;html=1;strokeColor=none;fillColor=none;align=left;verticalAlign=middle;whiteSpace=wrap;rounded=0;" vertex="1" parent="1">
          <mxGeometry x="290" y="292.5" width="120" height="30" as="geometry" />
        </mxCell>
      </root>
    </mxGraphModel>
  </diagram>
</mxfile>
